<?xml version="1.0" encoding="UTF-8" standalone="no"?>
<svg
   enable-background="new 0 0 24 24"
   viewBox="0 0 24 24"
   version="1.1"
   id="svg4"
   sodipodi:docname="docker.svg"
   inkscape:version="1.1 (c4e8f9ed74, 2021-05-24)"
   xmlns:inkscape="http://www.inkscape.org/namespaces/inkscape"
   xmlns:sodipodi="http://sodipodi.sourceforge.net/DTD/sodipodi-0.dtd"
   xmlns="http://www.w3.org/2000/svg"
   xmlns:svg="http://www.w3.org/2000/svg">
  <defs
     id="defs8" />
  <sodipodi:namedview
     id="namedview6"
     pagecolor="#ffffff"
     bordercolor="#666666"
     borderopacity="1.0"
     inkscape:pageshadow="2"
     inkscape:pageopacity="0.0"
     inkscape:pagecheckerboard="0"
     showgrid="false"
     inkscape:zoom="30.291667"
     inkscape:cx="5.8101788"
     inkscape:cy="12"
     inkscape:window-width="1920"
     inkscape:window-height="1018"
     inkscape:window-x="0"
     inkscape:window-y="32"
     inkscape:window-maximized="1"
     inkscape:current-layer="svg4" />
  <path
     d="M8.8,8.8h1.8c0.1,0,0.2-0.1,0.2-0.2V7.1c0-0.1-0.1-0.2-0.2-0.2H8.8C8.7,6.9,8.6,7,8.6,7.1v1.6C8.6,8.7,8.7,8.8,8.8,8.8z M11.2,11.1H13c0.1,0,0.2-0.1,0.2-0.2V9.3c0-0.1-0.1-0.2-0.2-0.2h-1.8c-0.1,0-0.2,0.1-0.2,0.2v1.6C11,11,11.1,11.1,11.2,11.1z M11.2,8.8H13c0.1,0,0.2-0.1,0.2-0.2V7.1C13.1,7,13,6.9,13,6.9h-1.8C11.1,6.9,11,7,11,7.1v1.6C11,8.7,11.1,8.8,11.2,8.8z M13.7,11.1h1.8c0.1,0,0.2-0.1,0.2-0.2V9.3c0-0.1-0.1-0.2-0.2-0.2h-1.8c-0.1,0-0.2,0.1-0.2,0.2v1.6C13.5,11,13.6,11.1,13.7,11.1z M11.2,6.5H13c0.1,0,0.2-0.1,0.2-0.2V4.8c0-0.1-0.1-0.2-0.2-0.2h-1.8c-0.1,0-0.2,0.1-0.2,0.2v1.6C11,6.5,11.1,6.5,11.2,6.5z M3.8,11.1h1.8c0.1,0,0.2-0.1,0.2-0.2V9.3c0-0.1-0.1-0.2-0.2-0.2H3.8c-0.1,0-0.2,0.1-0.2,0.2v1.6C3.7,11,3.8,11.1,3.8,11.1z M21.8,10.1c-0.5-0.3-1.1-0.5-1.6-0.4c-0.3,0-0.6,0-0.8,0.1c-0.2-0.9-0.7-1.7-1.4-2.1l-0.3-0.2l-0.2,0.3C17.2,8,17,8.4,16.9,8.9c-0.2,0.8-0.1,1.6,0.3,2.2c-0.5,0.2-1,0.3-1.5,0.4H2.6c-0.3,0-0.6,0.3-0.6,0.6c0,1.2,0.2,2.3,0.6,3.4c0.4,1.1,1.1,2,2,2.6c1.4,0.7,2.9,1,4.4,0.9c0.8,0,1.6-0.1,2.4-0.2c1.1-0.2,2.2-0.6,3.2-1.2c0.8-0.5,1.5-1.1,2.2-1.8c0.9-1.1,1.6-2.3,2.1-3.7h0.2c0.8,0,1.6-0.3,2.2-0.8c0.3-0.2,0.5-0.5,0.6-0.9l0.1-0.2L21.8,10.1z M6.3,11.1H8c0.1,0,0.2-0.1,0.2-0.2V9.3c0-0.1-0.1-0.2-0.2-0.2H6.3c-0.1,0-0.2,0.1-0.2,0.2v1.6C6.1,11,6.2,11.1,6.3,11.1z M6.3,8.8H8c0.1,0,0.2-0.1,0.2-0.2V7.1C8.2,7,8.1,6.9,8,6.9H6.3C6.2,6.9,6.1,7,6.1,7.1v1.6C6.1,8.7,6.2,8.8,6.3,8.8z M8.8,11.1h1.8c0.1,0,0.2-0.1,0.2-0.2V9.3c0-0.1-0.1-0.2-0.2-0.2H8.8c-0.1,0-0.2,0.1-0.2,0.2v1.6C8.6,11,8.7,11.1,8.8,11.1z"
     id="path2"
     style="fill:#ffffff;fill-opacity:1;stroke:#000000;stroke-opacity:1;stroke-width:0.2;stroke-miterlimit:4;stroke-dasharray:none;stroke-linejoin:miter;stroke-linecap:square;paint-order:stroke markers fill" />
</svg>
